<svg xmlns="http://www.w3.org/2000/svg" width="440" height="440" viewBox="0 0 440 440">
  <defs>
    <linearGradient id="h" x1="0" y1="0" x2="1" y2="1">
      <stop offset="0" stop-color="#2b1a5e"/><stop offset="1" stop-color="#12081f"/>
    </linearGradient>
    <linearGradient id="hair" x1="0" y1="0" x2="0" y2="1">
      <stop offset="0" stop-color="#3b2a6e"/><stop offset="1" stop-color="#1d1140"/>
    </linearGradient>
  </defs>
  <!-- lebegő szívek -->
  <g fill="#a78bfa">
    <path d="M60 90 c-8-14 12-24 18-10 c6-14 26-4 18 10 c-6 10-18 16-18 16 s-12-6-18-16z" opacity="0.5"/>
    <path d="M350 60 c-6-11 9-19 14-8 c5-11 20-3 14 8 c-5 8-14 12-14 12 s-9-4-14-12z" opacity="0.7"/>
    <path d="M390 180 c-5-9 7-15 11-6 c4-9 16-3 11 6 c-4 6-11 10-11 10 s-7-4-11-10z" opacity="0.4"/>
    <path d="M40 240 c-5-9 7-15 11-6 c4-9 16-3 11 6 c-4 6-11 10-11 10 s-7-4-11-10z" opacity="0.6"/>
  </g>
  <!-- haj -->
  <path d="M220 40 C120 40 90 140 100 240 C104 300 96 360 88 400 L150 380 C140 300 140 240 150 200 L290 200 C300 240 300 300 290 380 L352 400 C344 360 336 300 340 240 C350 140 320 40 220 40 Z" fill="url(#hair)"/>
  <!-- arc -->
  <ellipse cx="220" cy="160" rx="72" ry="78" fill="#f3e3e0"/>
  <!-- frufru -->
  <path d="M148 150 C150 90 180 60 220 60 C260 60 290 90 292 150 C270 120 250 110 220 112 C190 110 170 120 148 150 Z" fill="url(#hair)"/>
  <!-- szemek -->
  <ellipse cx="192" cy="168" rx="12" ry="16" fill="#7c3aed"/>
  <ellipse cx="248" cy="168" rx="12" ry="16" fill="#7c3aed"/>
  <circle cx="195" cy="163" r="4" fill="#fff"/>
  <circle cx="251" cy="163" r="4" fill="#fff"/>
  <!-- mosoly -->
  <path d="M206 204 Q220 214 234 204" stroke="#c9899b" stroke-width="4" fill="none" stroke-linecap="round"/>
  <!-- pulóver -->
  <path d="M130 400 C130 320 160 270 220 270 C280 270 310 320 310 400 Z" fill="#151022"/>
  <!-- kéz-szív -->
  <path d="M220 305 c-16-26 24-44 34-18 c10-26 50-8 34 18 c-12 20-34 32-34 32 s-22-12-34-32z" fill="#8b5cf6"/>
  <path d="M228 310 c-10-17 15-28 21-11 c6-17 31-6 21 11 c-8 13-21 20-21 20 s-13-7-21-20z" fill="#c4b5fd"/>
  <!-- AH logó a pulcsin -->
  <text x="220" y="382" font-family="Arial, sans-serif" font-size="20" font-weight="bold" fill="#8b5cf6" text-anchor="middle" opacity="0.8">AH</text>
</svg>
